<?xml version="1.0" encoding="UTF-8" standalone="no"?>
<!-- Created with Inkscape (http://www.inkscape.org/) -->

<svg
   xmlns:dc="http://purl.org/dc/elements/1.1/"
   xmlns:cc="http://creativecommons.org/ns#"
   xmlns:rdf="http://www.w3.org/1999/02/22-rdf-syntax-ns#"
   xmlns:svg="http://www.w3.org/2000/svg"
   xmlns="http://www.w3.org/2000/svg"
   xmlns:sodipodi="http://sodipodi.sourceforge.net/DTD/sodipodi-0.dtd"
   xmlns:inkscape="http://www.inkscape.org/namespaces/inkscape"
   width="416.98001"
   height="257.82999"
   id="svg3352"
   version="1.1"
   inkscape:version="0.48.4 r9939"
   sodipodi:docname="favicon.svg">
  <defs
     id="defs3354" />
  <sodipodi:namedview
     id="base"
     pagecolor="#000049"
     bordercolor="#666666"
     borderopacity="1.0"
     inkscape:pageopacity="0"
     inkscape:pageshadow="2"
     inkscape:zoom="0.35"
     inkscape:cx="164.29064"
     inkscape:cy="63.331894"
     inkscape:document-units="px"
     inkscape:current-layer="layer1"
     showgrid="false"
     inkscape:window-width="1024"
     inkscape:window-height="545"
     inkscape:window-x="0"
     inkscape:window-y="0"
     inkscape:window-maximized="1"
     inkscape:snap-bbox="true"
     width="300px"
     fit-margin-top="0"
     fit-margin-left="0"
     fit-margin-right="0"
     fit-margin-bottom="0"
     inkscape:showpageshadow="false" />
  <metadata
     id="metadata3357">
    <rdf:RDF>
      <cc:Work
         rdf:about="">
        <dc:format>image/svg+xml</dc:format>
        <dc:type
           rdf:resource="http://purl.org/dc/dcmitype/StillImage" />
        <dc:title />
      </cc:Work>
    </rdf:RDF>
  </metadata>
  <g
     inkscape:label="レイヤー 1"
     inkscape:groupmode="layer"
     id="layer1"
     transform="translate(-166.50939,-383.44851)">
    <rect
       style="fill:#000049;fill-opacity:1;stroke:#000049;stroke-width:0.32490914999999998;stroke-linejoin:miter;stroke-miterlimit:4;stroke-opacity:1;stroke-dasharray:none"
       id="rect3816"
       width="416.65631"
       height="257.50775"
       x="166.67184"
       y="383.60831" />
    <g
       transform="translate(35,328.75389)"
       style="font-size:170px;font-style:oblique;font-variant:normal;font-weight:bold;font-stretch:normal;text-align:center;line-height:125%;letter-spacing:-10.80000019px;word-spacing:0px;writing-mode:lr-tb;text-anchor:middle;fill:#000049;fill-opacity:1;stroke:#faffff;stroke-width:5;stroke-miterlimit:4;stroke-opacity:1;stroke-dasharray:none;font-family:Sans;-inkscape-font-specification:Sans Bold Oblique"
       id="text3826">
      <path
         inkscape:connector-curvature="0"
         d="m 203.87617,244.45302 -25.06836,0 25.4834,-121.68945 49.47266,0 c 8.79873,1.2e-4 15.75755,1.03771 20.87646,3.11279 5.11871,2.07531 9.17225,5.5063 12.16065,10.29297 2.98816,4.78688 4.4823,10.50058 4.48242,17.14111 -1.2e-4,6.14266 -1.1899,12.11922 -3.56934,17.92969 -2.37967,5.81061 -5.29877,10.45904 -8.75732,13.94531 -3.45876,3.48638 -7.18028,6.1288 -11.16455,7.92725 -3.98447,1.79855 -9.3523,3.16818 -16.10352,4.10888 -3.92911,0.55343 -11.28913,0.83013 -22.08008,0.83008 l -16.0205,0 z m 13.86231,-66.57227 7.71972,0 c 13.22585,7e-5 22.05234,-0.83001 26.4795,-2.49023 4.42699,-1.66009 7.91332,-4.31633 10.45898,-7.96875 2.54548,-3.65226 3.81826,-7.66431 3.81836,-12.03613 -10e-5,-2.93286 -0.65032,-5.34008 -1.95068,-7.22168 -1.30055,-1.88142 -3.12672,-3.25104 -5.47852,-4.10889 -2.35197,-0.85765 -7.59529,-1.28652 -15.72998,-1.28662 l -17.92969,0 z"
         style="fill:#000049;fill-opacity:1;stroke:#faffff;stroke-width:5;stroke-miterlimit:4;stroke-opacity:1;stroke-dasharray:none"
         id="path3831" />
      <path
         inkscape:connector-curvature="0"
         d="m 282.06054,244.45302 25.4834,-121.68945 32.78809,0 c 9.13078,1.2e-4 14.96899,0.13846 17.51465,0.41503 5.03572,0.49817 9.53197,1.52193 13.48877,3.07129 3.9566,1.5496 7.5536,3.72163 10.79101,6.51612 3.2372,2.7947 6.03179,6.15651 8.38379,10.08545 2.35177,3.92913 4.16411,8.45305 5.43701,13.57177 1.27267,5.1189 1.90906,10.72192 1.90918,16.80909 -1.2e-4,13.11529 -2.50419,24.7502 -7.5122,34.90478 -5.00825,10.15465 -11.30301,18.22023 -18.88428,24.19678 -5.81064,4.64844 -13.309,8.07943 -22.49512,10.29297 -5.20189,1.21744 -13.1983,1.82617 -23.98926,1.82617 z m 29.13575,-19.58985 12.70019,0 c 9.18614,2e-5 15.84059,-0.5672 19.96338,-1.70166 4.12265,-1.13441 7.8995,-3.25111 11.33057,-6.35009 4.92504,-4.48239 9.07543,-10.45895 12.45117,-17.92969 3.37555,-7.47065 5.06338,-16.26947 5.06348,-26.39649 -1e-4,-8.63273 -1.3974,-15.12116 -4.1919,-19.46533 -2.79469,-4.34398 -6.23951,-7.23541 -10.33447,-8.67431 -2.87769,-0.996 -7.9965,-1.49404 -15.35645,-1.49414 l -14.52636,0 z"
         style="fill:#000049;fill-opacity:1;stroke:#faffff;stroke-width:5;stroke-miterlimit:4;stroke-opacity:1;stroke-dasharray:none"
         id="path3833" />
      <path
         inkscape:connector-curvature="0"
         d="m 473.38456,217.55849 -48.22753,0 -14.60938,26.89453 -25.73242,0 68.81348,-121.68945 27.80761,0 19.75586,121.68945 -23.74023,0 z m -3.07128,-20.25391 -7.05567,-48.97461 -29.38476,48.97461 z"
         style="fill:#000049;fill-opacity:1;stroke:#faffff;stroke-width:5;stroke-miterlimit:4;stroke-opacity:1;stroke-dasharray:none"
         id="path3835" />
    </g>
  </g>
</svg>
